<?xml version="1.0" standalone="no"?>
<!DOCTYPE svg PUBLIC "-//W3C//DTD SVG 20010904//EN"
 "http://www.w3.org/TR/2001/REC-SVG-20010904/DTD/svg10.dtd">
<svg version="1.0" xmlns="http://www.w3.org/2000/svg"
 width="288.000000pt" height="288.000000pt" viewBox="0 0 288.000000 288.000000"
 preserveAspectRatio="xMidYMid meet">
<metadata>
Created by potrace 1.14, written by Peter Selinger 2001-2017
</metadata>
<g transform="translate(0.000000,288.000000) scale(0.100000,-0.100000)"
fill="#000000" stroke="none">
<path d="M492 2387 l-492 -492 0 -470 0 -469 477 -478 478 -478 495 0 495 0
468 468 467 467 0 493 0 492 -482 480 -483 479 -465 1 -465 0 -493 -493z
m1191 202 c349 -71 655 -299 810 -604 96 -189 137 -355 137 -554 0 -562 -393
-1042 -945 -1157 -134 -28 -348 -26 -483 4 -229 51 -404 147 -573 312 -191
188 -296 385 -340 638 -94 550 195 1076 711 1294 73 31 206 68 290 81 83 13
298 6 393 -14z"/>
<path d="M1295 2480 c-346 -51 -658 -285 -805 -603 -264 -573 29 -1246 630
-1447 310 -104 692 -45 950 146 263 194 420 484 437 804 29 542 -366 1023
-902 1100 -79 11 -235 11 -310 0z m-392 -813 c88 -44 92 -57 92 -297 l0 -205
-78 -3 c-73 -3 -79 -1 -84 18 -3 11 -8 19 -12 17 -127 -70 -220 -61 -285 27
-29 38 -29 137 -1 184 27 45 100 78 208 92 91 13 103 22 69 53 -28 25 -99 31
-162 14 -30 -8 -62 -16 -70 -18 -12 -3 -16 9 -20 54 -3 34 -1 62 5 67 20 16
121 29 203 26 63 -3 94 -10 135 -29z m567 4 c34 -16 35 -18 38 -80 2 -35 -1
-68 -5 -72 -4 -4 -30 5 -56 22 -59 37 -125 42 -165 12 -78 -57 -82 -192 -7
-251 40 -32 120 -30 169 3 59 40 66 35 66 -46 l0 -70 -37 -15 c-97 -41 -247
-25 -330 35 -136 98 -118 370 30 448 81 43 221 50 297 14z m512 3 c15 -8 34
-24 43 -36 13 -19 18 -21 33 -11 104 74 151 85 216 54 76 -37 85 -67 88 -311
l3 -205 -82 -3 c-46 -2 -83 1 -83 5 -3 323 -5 351 -24 372 -23 25 -46 26 -86
6 l-30 -15 -2 -183 -3 -182 -80 0 -80 0 -5 183 c-5 167 -7 185 -24 198 -27 19
-59 18 -87 -5 -24 -19 -24 -22 -24 -198 l0 -178 -81 -3 c-60 -2 -83 1 -85 10
-2 7 -3 124 -1 261 l3 247 79 0 c73 0 80 -2 80 -20 0 -24 8 -25 39 -3 62 43
131 49 193 17z m-944 -666 c2 -32 5 -58 7 -58 2 0 15 4 30 10 19 7 35 6 60 -4
41 -18 56 -62 52 -157 l-3 -64 -39 0 -40 0 -5 80 c-5 73 -7 80 -27 83 -26 4
-32 -12 -35 -103 l-3 -60 -35 0 -35 0 -3 155 c-1 85 0 160 2 166 3 7 20 12 38
11 33 -2 33 -2 36 -59z m-114 36 c10 -4 16 -18 16 -35 0 -28 -1 -29 -54 -29
-77 0 -101 -22 -101 -90 0 -68 24 -90 101 -90 53 0 54 -1 54 -29 0 -34 -14
-41 -81 -41 -100 0 -163 60 -163 155 0 67 33 121 88 146 41 18 109 25 140 13z
m864 -57 c2 -18 10 -27 25 -29 32 -4 31 -52 0 -56 -20 -3 -23 -9 -23 -48 0
-39 3 -46 26 -54 20 -8 25 -16 22 -38 -3 -24 -8 -27 -44 -30 -59 -4 -84 29
-84 108 0 42 -4 59 -15 64 -17 6 -21 56 -5 56 6 0 15 11 20 24 8 22 38 36 65
31 6 -1 11 -13 13 -28z m-412 -38 c24 -20 35 -67 32 -140 l-3 -74 -80 -2 c-69
-2 -82 0 -102 19 -51 48 -18 117 62 132 48 9 34 27 -18 24 -39 -3 -42 -1 -42
22 0 19 7 26 30 32 36 8 104 1 121 -13z m262 -2 c54 -44 54 -143 2 -190 -28
-25 -39 -29 -76 -24 l-43 4 -3 -46 c-3 -45 -3 -46 -38 -46 l-35 0 -3 157 -3
158 61 -2 c33 -1 63 2 67 6 9 9 53 -1 71 -17z m354 12 c42 -11 66 -46 70 -101
l3 -33 -75 -5 c-68 -5 -73 -7 -48 -17 15 -7 42 -9 62 -6 32 5 36 3 42 -22 9
-36 -6 -45 -80 -45 -53 0 -61 3 -92 34 -29 29 -34 41 -34 79 0 52 27 92 74
113 38 16 33 16 78 3z m236 -32 c3 -34 1 -37 -22 -37 -33 0 -45 -24 -42 -88 3
-59 -8 -75 -51 -70 l-28 3 -3 114 -3 114 43 -5 c24 -3 52 -1 63 3 31 12 40 5
43 -34z"/>
<path d="M732 1389 c-41 -12 -60 -48 -44 -83 14 -32 60 -41 106 -22 35 14 36
17 36 65 0 51 0 51 -32 50 -18 0 -48 -5 -66 -10z"/>
<path d="M1294 826 c-14 -11 -16 -18 -8 -26 15 -15 44 -2 44 21 0 23 -9 24
-36 5z"/>
<path d="M1532 888 c-20 -20 -15 -76 9 -88 40 -22 74 33 49 81 -12 21 -40 25
-58 7z"/>
<path d="M1933 903 c-24 -9 -13 -23 18 -23 20 0 29 4 27 13 -5 13 -26 18 -45
10z"/>
</g>
</svg>
